<svg width="54" height="54" viewBox="0 0 54 54" fill="none" xmlns="http://www.w3.org/2000/svg">
<path fill-rule="evenodd" clip-rule="evenodd" d="M29.4846 9.39826L33.5963 17.6124C33.9992 18.4188 34.777 18.978 35.679 19.1074L44.877 20.4314C47.1496 20.7595 48.0539 23.5137 46.4092 25.0919L39.7579 31.483C39.1043 32.1115 38.8067 33.0149 38.9613 33.9022L40.531 42.9251C40.9176 45.1571 38.542 46.86 36.5107 45.8041L28.2897 41.541C27.4838 41.1228 26.5185 41.1228 25.7103 41.541L17.4893 45.8041C15.458 46.86 13.0824 45.1571 13.4713 42.9251L15.0387 33.9022C15.1933 33.0149 14.8957 32.1115 14.2421 31.483L7.59078 25.0919C5.94611 23.5137 6.85044 20.7595 9.12299 20.4314L18.321 19.1074C19.223 18.978 20.0031 18.4188 20.4061 17.6124L24.5154 9.39826C25.5322 7.36725 28.4678 7.36725 29.4846 9.39826Z" stroke="white" stroke-width="4.00909" stroke-linecap="round" stroke-linejoin="round"/>
</svg>
